<svg xmlns="http://www.w3.org/2000/svg" width="410" height="404" viewBox="0 0 410 404" fill="none">
  <defs>
    <linearGradient id="a" x1="6.815" x2="235.765" y1="33.467" y2="344.184" gradientUnits="userSpaceOnUse">
      <stop stop-color="#41D1FF" />
      <stop offset="1" stop-color="#BD34FE" />
    </linearGradient>
    <linearGradient id="b" x1="194.651" x2="236.076" y1="8.818" y2="292.989" gradientUnits="userSpaceOnUse">
      <stop stop-color="#FFEA83" />
      <stop offset="0.083" stop-color="#FFDD35" />
      <stop offset="1" stop-color="#FFA800" />
    </linearGradient>
  </defs>
  <path fill="url(#a)" d="M255.153 220.472L106.219 402.374a7.998 7.998 0 0 1-13.931-3.864L0.22 64.984c-1.691-6.794 5.964-12.332 11.929-8.602l120.697 74.092a7.999 7.999 0 0 0 9.957-1.16L248.02 33.828c5.64-5.482 15.399-2.53 16.637 5.37l43.54 265.242c1.18 7.176-7.319 11.519-12.992 6.032l-39.052-39.878c-5.149-5.263-13.93-4.293-17.985 1.878z" />
  <path fill="url(#b)" d="M185.432 229.865L43.09 120.695c-5.777-4.408-4.724-13.664 1.887-16.648L245.122 22.62c6.48-2.873 13.744 1.745 14.133 8.716l6.34 112.953a8 8 0 0 1-3.027 6.509l-68.888 53.864c-6.441 5.04-6.006 14.75 0.805 19.23l44.651 28.743c6.934 4.464 6.464 14.723-0.84 18.566l-21.986 11.7c-5.484 2.92-12.148 0.235-14.346-5.651l-12.63-33.285c-2.45-6.451-10.682-8.36-15.802-3.771z" />
</svg>
